<svg width="160" height="48" viewBox="0 0 160 48" fill="none" xmlns="http://www.w3.org/2000/svg">
<g clip-path="url(#clip0_17395_112294)">
<g clip-path="url(#clip1_17395_112294)">
<path d="M9.84 7.26C1.62 19.92 3.96 37.62 16.5 47.16C16.74 47.4 16.86 47.7 16.74 47.88C16.62 48.06 16.26 48.06 16.02 47.82C10.0699 43.1109 6.14241 36.3076 5.04 28.8C3.9 21.24 5.58 13.56 9.84 7.26ZM10.5 42.9C8.76 44.4 5.28 43.14 3.54 39.66C5.64 38.64 8.46 40.26 10.5 42.9ZM12.36 35.04C13.5 37.38 13.5 40.32 11.76 41.88C9.72 39.24 10.32 36 12.36 35.04ZM7.26 37.68C5.28 38.88 2.16 36.96 1.14 33.24C3.36 32.7 5.76 34.8 7.26 37.68ZM10.68 30.48C11.34 33 10.74 35.88 8.7 36.96H8.64C7.2 34.02 8.46 31.02 10.68 30.48ZM5.16 32.1C2.94 32.82 0.3 30.36 0 26.52C2.28 26.4 4.26 28.98 5.16 32.1ZM9.9 25.74C10.08 28.32 8.88 30.96 6.66 31.68V31.62C5.82 28.5 7.56 25.86 9.9 25.74ZM0.18 19.68C2.46 20.1 3.9 22.98 4.14 26.16C1.86 26.46 -0.3 23.52 0.18 19.68ZM10.02 20.94C9.66 23.52 8.04 25.8 5.76 26.1L5.7 26.04C5.52 22.86 7.74 20.58 10.02 20.94ZM11.04 16.26C10.26 18.72 8.16 20.64 5.88 20.4C6.24 17.22 8.88 15.42 11.04 16.26ZM1.62 13.02C3.72 13.86 4.62 16.92 4.32 20.04L4.26 20.22H4.2C1.98 19.92 0.48 16.8 1.56 13.2L1.62 13.02ZM12.96 11.76C11.64 14.04 9.3 15.54 7.08 14.88C8.04 11.82 10.98 10.5 12.96 11.76ZM4.38 6.72C6.3 7.98 6.54 11.28 5.58 14.4C3.36 13.74 2.4 10.14 4.38 6.72ZM15.78 7.68C13.98 9.72 11.34 10.74 9.3 9.66C10.92 6.78 14.16 6.06 15.78 7.68ZM8.34 0.96C10.02 2.64 9.54 6 7.92 8.82C5.94 7.74 5.7 4.02 8.34 0.96ZM16.74 0C15.66 2.82 13.38 5.04 10.62 6.12C10.62 3.24 13.74 0.06 16.74 0Z" fill="#00AA45"/>
</g>
<path d="M30.1161 20C29.9201 20 29.8221 19.93 29.8221 19.79C29.8221 19.636 29.9621 19.538 30.2421 19.496L30.6621 19.433C30.9701 19.391 31.1801 19.321 31.2921 19.223C31.4181 19.111 31.5091 18.908 31.5651 18.614L34.4211 6.266C34.4911 5.972 34.4911 5.776 34.4211 5.678C34.3511 5.58 34.1761 5.503 33.8961 5.447L33.4761 5.363C33.2941 5.321 33.2031 5.244 33.2031 5.132C33.2031 4.964 33.3291 4.88 33.5811 4.88H37.3821C37.5921 4.88 37.6761 4.964 37.6341 5.132C37.6061 5.258 37.5151 5.335 37.3611 5.363L36.7731 5.447C36.4651 5.489 36.2551 5.566 36.1431 5.678C36.0311 5.79 35.9401 5.993 35.8701 6.287L33.1401 18.047C33.0281 18.551 33.0981 18.915 33.3501 19.139C33.6021 19.363 33.9661 19.475 34.4421 19.475C34.9741 19.475 35.5201 19.272 36.0801 18.866C36.6401 18.46 37.1021 17.823 37.4661 16.955L38.0961 15.485C38.1661 15.303 38.2781 15.212 38.4321 15.212C38.6421 15.212 38.7121 15.331 38.6421 15.569L37.4661 19.517C37.3821 19.839 37.1721 20 36.8361 20H30.1161ZM41.1424 20.189C40.6384 20.189 40.2464 19.972 39.9664 19.538C39.6864 19.104 39.5464 18.467 39.5464 17.627C39.5464 16.829 39.6584 16.031 39.8824 15.233C40.1064 14.421 40.4144 13.651 40.8064 12.923C41.1984 12.195 41.6394 11.551 42.1294 10.991C42.6334 10.431 43.1584 9.99 43.7044 9.668C44.2644 9.332 44.8174 9.164 45.3634 9.164C45.6294 9.164 45.8814 9.22 46.1194 9.332C46.3574 9.43 46.5534 9.591 46.7074 9.815C46.7914 9.941 46.8754 10.004 46.9594 10.004C47.0434 10.004 47.1274 9.941 47.2114 9.815C47.3654 9.591 47.4914 9.451 47.5894 9.395C47.6874 9.325 47.7784 9.29 47.8624 9.29C48.0444 9.29 48.1144 9.388 48.0724 9.584L46.2034 17.627C45.9934 18.537 46.1334 18.992 46.6234 18.992C46.9454 18.992 47.2324 18.775 47.4844 18.341C47.7504 17.907 48.0164 17.235 48.2824 16.325C48.3244 16.171 48.4154 16.094 48.5554 16.094C48.6534 16.094 48.7164 16.136 48.7444 16.22C48.7724 16.304 48.7724 16.402 48.7444 16.514C48.4784 17.83 48.1214 18.775 47.6734 19.349C47.2254 19.909 46.6864 20.189 46.0564 20.189C45.5104 20.189 45.1184 19.958 44.8804 19.496C44.6564 19.034 44.6354 18.404 44.8174 17.606L45.0904 16.451C45.1184 16.353 45.0974 16.297 45.0274 16.283C44.9714 16.269 44.9224 16.304 44.8804 16.388C44.1104 17.802 43.4244 18.789 42.8224 19.349C42.2344 19.909 41.6744 20.189 41.1424 20.189ZM41.6674 19.118C42.0034 19.118 42.3744 18.915 42.7804 18.509C43.1864 18.103 43.5854 17.578 43.9774 16.934C44.3834 16.29 44.7544 15.597 45.0904 14.855C45.4264 14.113 45.6924 13.399 45.8884 12.713C46.0984 12.027 46.2034 11.446 46.2034 10.97C46.2034 10.116 45.9024 9.689 45.3004 9.689C44.9364 9.689 44.5514 9.857 44.1454 10.193C43.7394 10.515 43.3474 10.956 42.9694 11.516C42.6054 12.076 42.2694 12.713 41.9614 13.427C41.6674 14.127 41.4294 14.862 41.2474 15.632C41.0654 16.388 40.9744 17.13 40.9744 17.858C40.9744 18.348 41.0304 18.684 41.1424 18.866C41.2684 19.034 41.4434 19.118 41.6674 19.118ZM51.6347 20.189C51.1167 20.189 50.7597 19.958 50.5637 19.496C50.3817 19.02 50.3957 18.397 50.6057 17.627L52.2647 11.537C52.3767 11.131 52.4047 10.816 52.3487 10.592C52.2927 10.368 52.1667 10.256 51.9707 10.256C51.6487 10.256 51.3197 10.501 50.9837 10.991C50.6617 11.481 50.3817 12.16 50.1437 13.028C50.1017 13.182 50.0107 13.259 49.8707 13.259C49.6747 13.259 49.6117 13.119 49.6817 12.839C50.0037 11.663 50.4237 10.76 50.9417 10.13C51.4737 9.486 52.0547 9.164 52.6847 9.164C53.1887 9.164 53.5247 9.395 53.6927 9.857C53.8607 10.319 53.8327 10.949 53.6087 11.747L51.9287 17.837C51.6627 18.803 51.7537 19.286 52.2017 19.286C52.4817 19.286 52.8037 19.097 53.1677 18.719C53.5317 18.341 53.9097 17.823 54.3017 17.165C54.7077 16.507 55.1067 15.758 55.4987 14.918C55.8907 14.078 56.2477 13.196 56.5697 12.272C56.8917 11.348 57.1577 10.431 57.3677 9.521C57.4097 9.367 57.5077 9.29 57.6617 9.29H58.5017C58.6977 9.29 58.7747 9.381 58.7327 9.563L56.7587 18.005C56.6047 18.663 56.7237 18.992 57.1157 18.992C57.7037 18.992 58.3197 18.103 58.9637 16.325C59.0197 16.143 59.1177 16.052 59.2577 16.052C59.3417 16.052 59.3977 16.087 59.4257 16.157C59.4677 16.227 59.4677 16.318 59.4257 16.43C59.0477 17.62 58.5997 18.544 58.0817 19.202C57.5637 19.86 57.0177 20.189 56.4437 20.189C55.4357 20.189 55.0997 19.454 55.4357 17.984L55.9817 15.653C56.0097 15.555 55.9887 15.499 55.9187 15.485C55.8627 15.471 55.8137 15.506 55.7717 15.59C54.9597 17.27 54.2107 18.46 53.5247 19.16C52.8387 19.846 52.2087 20.189 51.6347 20.189ZM60.9968 19.727L62.9918 11.348C63.0618 11.04 63.0688 10.802 63.0128 10.634C62.9708 10.452 62.8448 10.361 62.6348 10.361C62.3828 10.361 62.1028 10.55 61.7948 10.928C61.5008 11.292 61.1648 11.992 60.7868 13.028C60.7308 13.21 60.6328 13.301 60.4928 13.301C60.2828 13.301 60.2268 13.175 60.3248 12.923C60.6328 11.957 60.9548 11.201 61.2908 10.655C61.6408 10.109 61.9908 9.724 62.3408 9.5C62.6908 9.276 63.0128 9.164 63.3068 9.164C63.7688 9.164 64.0978 9.339 64.2938 9.689C64.4898 10.025 64.4968 10.585 64.3148 11.369L63.7898 13.637C63.7758 13.735 63.7968 13.791 63.8528 13.805C63.9088 13.819 63.9578 13.784 63.9998 13.7C64.5458 12.566 65.0708 11.67 65.5748 11.012C66.0788 10.34 66.5548 9.864 67.0028 9.584C67.4508 9.304 67.8568 9.164 68.2208 9.164C68.7388 9.164 69.1168 9.374 69.3548 9.794C69.5928 10.214 69.5928 10.858 69.3548 11.726L67.7588 17.816C67.6608 18.208 67.6538 18.502 67.7378 18.698C67.8218 18.894 67.9758 18.992 68.1998 18.992C68.4798 18.992 68.7528 18.81 69.0188 18.446C69.2988 18.068 69.5858 17.361 69.8798 16.325C69.9218 16.171 70.0128 16.094 70.1528 16.094C70.2648 16.094 70.3278 16.136 70.3418 16.22C70.3698 16.304 70.3698 16.402 70.3418 16.514C70.0758 17.466 69.7888 18.215 69.4808 18.761C69.1728 19.293 68.8578 19.664 68.5358 19.874C68.2278 20.084 67.9128 20.189 67.5908 20.189C67.0868 20.189 66.7088 19.979 66.4568 19.559C66.2048 19.139 66.1908 18.488 66.4148 17.606L68.0318 11.516C68.1858 10.97 68.2068 10.592 68.0948 10.382C67.9968 10.172 67.8498 10.067 67.6538 10.067C67.3458 10.067 66.9958 10.263 66.6038 10.655C66.2118 11.033 65.8128 11.558 65.4068 12.23C65.0008 12.888 64.6018 13.637 64.2098 14.477C63.8178 15.317 63.4608 16.192 63.1388 17.102C62.8308 18.012 62.5788 18.901 62.3828 19.769C62.3408 19.923 62.2428 20 62.0888 20H61.2278C61.0318 20 60.9548 19.909 60.9968 19.727ZM73.817 20.189C73.047 20.189 72.41 19.874 71.906 19.244C71.402 18.6 71.15 17.781 71.15 16.787C71.15 15.849 71.297 14.932 71.591 14.036C71.899 13.126 72.305 12.307 72.809 11.579C73.327 10.837 73.894 10.249 74.51 9.815C75.14 9.381 75.77 9.164 76.4 9.164C77.072 9.164 77.639 9.346 78.101 9.71C78.171 9.766 78.213 9.815 78.227 9.857C78.241 9.885 78.234 9.955 78.206 10.067L77.639 12.818C77.597 13.014 77.506 13.112 77.366 13.112C77.212 13.112 77.121 13.007 77.093 12.797L76.988 11.306C76.946 10.662 76.848 10.242 76.694 10.046C76.554 9.85 76.344 9.752 76.064 9.752C75.672 9.752 75.273 9.948 74.867 10.34C74.461 10.718 74.083 11.236 73.733 11.894C73.397 12.538 73.124 13.259 72.914 14.057C72.718 14.841 72.62 15.639 72.62 16.451C72.62 18.215 73.194 19.097 74.342 19.097C74.888 19.097 75.378 18.845 75.812 18.341C76.26 17.837 76.673 17.053 77.051 15.989C77.093 15.849 77.191 15.779 77.345 15.779C77.429 15.779 77.478 15.814 77.492 15.884C77.506 15.94 77.492 16.059 77.45 16.241C77.31 17.011 77.058 17.69 76.694 18.278C76.33 18.866 75.896 19.335 75.392 19.685C74.902 20.021 74.377 20.189 73.817 20.189ZM84.9593 20.189C84.4553 20.189 84.0773 19.979 83.8253 19.559C83.5733 19.139 83.5593 18.488 83.7833 17.606L85.4003 11.516C85.5543 10.97 85.5753 10.592 85.4633 10.382C85.3653 10.172 85.2183 10.067 85.0223 10.067C84.7143 10.067 84.3643 10.263 83.9723 10.655C83.5943 11.033 83.1953 11.558 82.7753 12.23C82.3693 12.888 81.9703 13.637 81.5783 14.477C81.2003 15.303 80.8503 16.178 80.5283 17.102C80.2063 18.012 79.9473 18.901 79.7513 19.769C79.7093 19.923 79.6113 20 79.4573 20H78.5753C78.3793 20 78.3023 19.909 78.3443 19.727L81.4103 6.56C81.4803 6.308 81.4803 6.133 81.4103 6.035C81.3543 5.937 81.2283 5.881 81.0323 5.867L80.4023 5.804C80.1923 5.79 80.1013 5.699 80.1293 5.531C80.1573 5.405 80.2553 5.328 80.4233 5.3C80.9273 5.216 81.3753 5.118 81.7673 5.006C82.1593 4.88 82.4743 4.719 82.7123 4.523C82.8243 4.439 82.9293 4.397 83.0273 4.397C83.1953 4.397 83.2583 4.502 83.2163 4.712L81.1583 13.637C81.1443 13.735 81.1653 13.791 81.2213 13.805C81.2773 13.819 81.3263 13.784 81.3683 13.7C81.9283 12.552 82.4603 11.649 82.9643 10.991C83.4683 10.333 83.9373 9.864 84.3713 9.584C84.8193 9.304 85.2253 9.164 85.5893 9.164C86.1073 9.164 86.4853 9.374 86.7233 9.794C86.9613 10.214 86.9613 10.858 86.7233 11.726L85.1273 17.816C85.0293 18.208 85.0223 18.502 85.1063 18.698C85.1903 18.894 85.3443 18.992 85.5683 18.992C85.8483 18.992 86.1213 18.81 86.3873 18.446C86.6533 18.068 86.9403 17.361 87.2483 16.325C87.2903 16.171 87.3813 16.094 87.5213 16.094C87.6333 16.094 87.6963 16.136 87.7103 16.22C87.7383 16.304 87.7383 16.402 87.7103 16.514C87.4443 17.466 87.1573 18.215 86.8493 18.761C86.5413 19.293 86.2263 19.664 85.9043 19.874C85.5963 20.084 85.2813 20.189 84.9593 20.189ZM90.8936 20.189C90.1516 20.189 89.5566 19.902 89.1086 19.328C88.6606 18.74 88.4366 17.914 88.4366 16.85C88.4366 15.926 88.5976 15.009 88.9196 14.099C89.2556 13.189 89.6896 12.363 90.2216 11.621C90.7536 10.879 91.3346 10.284 91.9646 9.836C92.6086 9.388 93.2316 9.164 93.8336 9.164C94.4916 9.164 94.9606 9.325 95.2406 9.647C95.5346 9.955 95.6816 10.375 95.6816 10.907C95.6816 11.537 95.4576 12.167 95.0096 12.797C94.5756 13.413 93.9596 13.966 93.1616 14.456C92.3776 14.946 91.4536 15.31 90.3896 15.548C90.0816 15.618 89.9206 15.793 89.9066 16.073C89.8926 16.171 89.8856 16.276 89.8856 16.388C89.8856 16.486 89.8856 16.584 89.8856 16.682C89.8856 17.48 90.0186 18.082 90.2846 18.488C90.5646 18.894 90.9426 19.097 91.4186 19.097C91.9506 19.097 92.4616 18.852 92.9516 18.362C93.4556 17.872 93.8756 17.179 94.2116 16.283C94.2536 16.157 94.3376 16.094 94.4636 16.094C94.5476 16.094 94.5966 16.129 94.6106 16.199C94.6386 16.269 94.6386 16.353 94.6106 16.451C94.1626 17.683 93.6166 18.614 92.9726 19.244C92.3426 19.874 91.6496 20.189 90.8936 20.189ZM90.1166 14.75C90.0886 14.848 90.1026 14.932 90.1586 15.002C90.2286 15.058 90.3126 15.072 90.4106 15.044C91.2786 14.806 92.0066 14.449 92.5946 13.973C93.1826 13.483 93.6236 12.937 93.9176 12.335C94.2256 11.733 94.3796 11.145 94.3796 10.571C94.3796 9.983 94.1486 9.689 93.6866 9.689C93.2806 9.689 92.8396 9.927 92.3636 10.403C91.8876 10.879 91.4466 11.502 91.0406 12.272C90.6346 13.042 90.3266 13.868 90.1166 14.75ZM97.3754 20.189C96.8574 20.189 96.4584 19.972 96.1784 19.538C95.8984 19.104 95.7584 18.467 95.7584 17.627C95.7584 16.829 95.8704 16.031 96.0944 15.233C96.3184 14.421 96.6264 13.651 97.0184 12.923C97.4104 12.195 97.8514 11.551 98.3414 10.991C98.8454 10.431 99.3704 9.99 99.9164 9.668C100.476 9.332 101.029 9.164 101.575 9.164C101.953 9.164 102.282 9.262 102.562 9.458C102.758 9.584 102.877 9.542 102.919 9.332L103.591 6.56C103.661 6.308 103.661 6.133 103.591 6.035C103.535 5.937 103.409 5.881 103.213 5.867L102.583 5.804C102.373 5.79 102.282 5.699 102.31 5.531C102.338 5.405 102.436 5.328 102.604 5.3C103.108 5.216 103.556 5.118 103.948 5.006C104.34 4.88 104.655 4.719 104.893 4.523C105.005 4.439 105.11 4.397 105.208 4.397C105.376 4.397 105.439 4.502 105.397 4.712L102.415 17.627C102.205 18.537 102.345 18.992 102.835 18.992C103.157 18.992 103.444 18.775 103.696 18.341C103.962 17.907 104.228 17.235 104.494 16.325C104.536 16.171 104.627 16.094 104.767 16.094C104.865 16.094 104.928 16.136 104.956 16.22C104.984 16.304 104.984 16.402 104.956 16.514C104.69 17.83 104.319 18.775 103.843 19.349C103.381 19.909 102.835 20.189 102.205 20.189C101.659 20.189 101.267 19.958 101.029 19.496C100.805 19.034 100.784 18.404 100.966 17.606L101.197 16.64C101.225 16.542 101.204 16.486 101.134 16.472C101.078 16.458 101.029 16.493 100.987 16.577C100.315 17.893 99.6784 18.824 99.0764 19.37C98.4744 19.916 97.9074 20.189 97.3754 20.189ZM97.8794 19.118C98.2154 19.118 98.5864 18.915 98.9924 18.509C99.3984 18.103 99.7974 17.578 100.189 16.934C100.595 16.29 100.966 15.597 101.302 14.855C101.638 14.113 101.904 13.399 102.1 12.713C102.31 12.027 102.415 11.446 102.415 10.97C102.415 10.116 102.114 9.689 101.512 9.689C101.148 9.689 100.763 9.857 100.357 10.193C99.9514 10.515 99.5594 10.956 99.1814 11.516C98.8174 12.076 98.4814 12.713 98.1734 13.427C97.8794 14.127 97.6414 14.862 97.4594 15.632C97.2774 16.388 97.1864 17.13 97.1864 17.858C97.1864 18.348 97.2494 18.684 97.3754 18.866C97.5154 19.034 97.6834 19.118 97.8794 19.118ZM112.234 20.189C111.366 20.189 110.68 19.832 110.176 19.118C109.672 18.39 109.42 17.41 109.42 16.178C109.42 15.268 109.567 14.393 109.861 13.553C110.155 12.713 110.54 11.964 111.016 11.306C111.506 10.648 112.045 10.13 112.633 9.752C113.235 9.36 113.837 9.164 114.439 9.164C115.307 9.164 115.993 9.521 116.497 10.235C117.001 10.949 117.253 11.929 117.253 13.175C117.253 14.085 117.106 14.96 116.812 15.8C116.518 16.64 116.126 17.389 115.636 18.047C115.16 18.705 114.621 19.23 114.019 19.622C113.431 20 112.836 20.189 112.234 20.189ZM112.192 19.685C112.64 19.685 113.074 19.468 113.494 19.034C113.928 18.6 114.32 18.026 114.67 17.312C115.02 16.598 115.3 15.807 115.51 14.939C115.72 14.057 115.825 13.175 115.825 12.293C115.825 10.543 115.37 9.668 114.46 9.668C114.026 9.668 113.592 9.885 113.158 10.319C112.724 10.739 112.332 11.306 111.982 12.02C111.646 12.734 111.373 13.532 111.163 14.414C110.953 15.282 110.848 16.157 110.848 17.039C110.848 18.803 111.296 19.685 112.192 19.685ZM118.808 19.727L120.803 11.348C120.873 11.04 120.88 10.802 120.824 10.634C120.782 10.452 120.656 10.361 120.446 10.361C120.194 10.361 119.914 10.55 119.606 10.928C119.312 11.292 118.976 11.992 118.598 13.028C118.542 13.21 118.444 13.301 118.304 13.301C118.094 13.301 118.038 13.175 118.136 12.923C118.444 11.957 118.766 11.201 119.102 10.655C119.452 10.109 119.802 9.724 120.152 9.5C120.502 9.276 120.824 9.164 121.118 9.164C121.58 9.164 121.909 9.339 122.105 9.689C122.301 10.025 122.308 10.585 122.126 11.369L121.601 13.637C121.587 13.735 121.608 13.791 121.664 13.805C121.72 13.819 121.769 13.784 121.811 13.7C122.357 12.566 122.882 11.67 123.386 11.012C123.89 10.34 124.366 9.864 124.814 9.584C125.262 9.304 125.668 9.164 126.032 9.164C126.55 9.164 126.928 9.374 127.166 9.794C127.404 10.214 127.404 10.858 127.166 11.726L125.57 17.816C125.472 18.208 125.465 18.502 125.549 18.698C125.633 18.894 125.787 18.992 126.011 18.992C126.291 18.992 126.564 18.81 126.83 18.446C127.11 18.068 127.397 17.361 127.691 16.325C127.733 16.171 127.824 16.094 127.964 16.094C128.076 16.094 128.139 16.136 128.153 16.22C128.181 16.304 128.181 16.402 128.153 16.514C127.887 17.466 127.6 18.215 127.292 18.761C126.984 19.293 126.669 19.664 126.347 19.874C126.039 20.084 125.724 20.189 125.402 20.189C124.898 20.189 124.52 19.979 124.268 19.559C124.016 19.139 124.002 18.488 124.226 17.606L125.843 11.516C125.997 10.97 126.018 10.592 125.906 10.382C125.808 10.172 125.661 10.067 125.465 10.067C125.157 10.067 124.807 10.263 124.415 10.655C124.023 11.033 123.624 11.558 123.218 12.23C122.812 12.888 122.413 13.637 122.021 14.477C121.629 15.317 121.272 16.192 120.95 17.102C120.642 18.012 120.39 18.901 120.194 19.769C120.152 19.923 120.054 20 119.9 20H119.039C118.843 20 118.766 19.909 118.808 19.727Z" fill="black"/>
<path d="M32.5935 35.7381C32.5935 36.4259 32.4162 37.0212 32.0617 37.5238C31.7125 38.0265 31.2151 38.4153 30.5696 38.6905C29.9294 38.9656 29.1728 39.1032 28.2998 39.1032C27.7178 39.1032 27.186 39.0423 26.7046 38.9206C26.2231 38.7989 25.8024 38.627 25.4427 38.4048L25.5538 37.6984C25.7442 37.8307 25.9506 37.9418 26.1728 38.0317C26.395 38.1164 26.6305 38.1825 26.8792 38.2302C27.1278 38.2725 27.3871 38.2936 27.6569 38.2936C28.1437 38.2936 28.5776 38.1931 28.9585 37.9921C29.3395 37.791 29.6384 37.4947 29.8554 37.1032C30.0723 36.7116 30.1808 36.2354 30.1808 35.6746C30.1808 35.0238 30.0511 34.4603 29.7919 33.9841C29.5379 33.5079 29.1781 33.1376 28.7125 32.873C28.2469 32.6085 27.6993 32.4762 27.0696 32.4762H26.4427V41.4762C26.4427 41.5926 26.4744 41.6931 26.5379 41.7778C26.6014 41.8571 26.7019 41.9074 26.8395 41.9286L27.53 42.0238C27.6622 42.0503 27.7575 42.0952 27.8157 42.1587C27.8739 42.2222 27.903 42.3148 27.903 42.4365C27.903 42.5476 27.8633 42.6376 27.7839 42.7063C27.7099 42.7698 27.5908 42.8016 27.4268 42.8016H23.2839C23.1199 42.8016 22.9982 42.7698 22.9189 42.7063C22.8395 42.6376 22.7998 42.5476 22.7998 42.4365C22.7998 42.2354 22.9109 42.1005 23.1331 42.0317L23.5935 41.9286C23.7204 41.8915 23.8157 41.836 23.8792 41.7619C23.948 41.6878 23.9823 41.5926 23.9823 41.4762V33.0159C23.9823 32.8995 23.948 32.8042 23.8792 32.7302C23.8157 32.6561 23.7204 32.6005 23.5935 32.5635L23.1331 32.4603C22.9109 32.3915 22.7998 32.2566 22.7998 32.0556C22.7998 31.9392 22.8395 31.8492 22.9189 31.7857C22.9982 31.7222 23.1199 31.6905 23.2839 31.6905H27.1331C28.2866 31.6905 29.2707 31.8651 30.0855 32.2143C30.9003 32.5582 31.522 33.037 31.9506 33.6508C32.3792 34.2593 32.5935 34.955 32.5935 35.7381Z" fill="#0D0D0D"/>
<path d="M40.2574 38.1111C40.2574 38.3915 40.178 38.6085 40.0193 38.7619C39.8606 38.91 39.6278 38.9841 39.3209 38.9841H34.3685V38.3809H37.6145C37.8844 38.3809 38.0193 38.2593 38.0193 38.0159C38.0193 37.3175 37.8923 36.7884 37.6383 36.4286C37.3844 36.0635 37.0431 35.881 36.6145 35.881C36.2865 35.881 35.9955 35.9815 35.7415 36.1825C35.4875 36.3836 35.2891 36.672 35.1463 37.0476C35.0034 37.418 34.932 37.8677 34.932 38.3968C34.932 39.418 35.1701 40.1852 35.6463 40.6984C36.1278 41.2116 36.768 41.4682 37.5669 41.4682C38.0325 41.4682 38.4399 41.3757 38.7891 41.1905C39.1436 41.0053 39.4188 40.7407 39.6145 40.3968C39.7098 40.291 39.7838 40.2196 39.8368 40.1825C39.895 40.1455 39.9532 40.127 40.0114 40.127C40.096 40.127 40.1569 40.1667 40.1939 40.246C40.2309 40.3201 40.2494 40.41 40.2494 40.5159C40.2283 40.9603 40.0696 41.373 39.7733 41.754C39.477 42.1296 39.0775 42.4312 38.5748 42.6587C38.0722 42.8862 37.4955 43 36.8447 43C36.0775 43 35.3976 42.8439 34.805 42.5317C34.2124 42.2143 33.7468 41.7725 33.4082 41.2063C33.0749 40.6349 32.9082 39.9683 32.9082 39.2063C32.9082 38.4074 33.0669 37.6984 33.3844 37.0794C33.7071 36.4603 34.1674 35.9762 34.7653 35.627C35.3632 35.2778 36.0775 35.1032 36.9082 35.1032C37.6172 35.1032 38.2203 35.2328 38.7177 35.4921C39.2203 35.746 39.6013 36.1005 39.8606 36.5556C40.1251 37.0053 40.2574 37.5238 40.2574 38.1111Z" fill="#0D0D0D"/>
<path d="M48.4035 38.1111C48.4035 38.3915 48.3241 38.6085 48.1654 38.7619C48.0066 38.91 47.7738 38.9841 47.467 38.9841H42.5146V38.3809H45.7606C46.0304 38.3809 46.1654 38.2593 46.1654 38.0159C46.1654 37.3175 46.0384 36.7884 45.7844 36.4286C45.5304 36.0635 45.1892 35.881 44.7606 35.881C44.4326 35.881 44.1416 35.9815 43.8876 36.1825C43.6336 36.3836 43.4352 36.672 43.2924 37.0476C43.1495 37.418 43.0781 37.8677 43.0781 38.3968C43.0781 39.418 43.3162 40.1852 43.7924 40.6984C44.2738 41.2116 44.914 41.4682 45.713 41.4682C46.1786 41.4682 46.586 41.3757 46.9352 41.1905C47.2897 41.0053 47.5648 40.7407 47.7606 40.3968C47.8558 40.291 47.9299 40.2196 47.9828 40.1825C48.041 40.1455 48.0992 40.127 48.1574 40.127C48.2421 40.127 48.3029 40.1667 48.34 40.246C48.377 40.3201 48.3955 40.41 48.3955 40.5159C48.3744 40.9603 48.2156 41.373 47.9193 41.754C47.623 42.1296 47.2236 42.4312 46.7209 42.6587C46.2183 42.8862 45.6416 43 44.9908 43C44.2236 43 43.5437 42.8439 42.9511 42.5317C42.3585 42.2143 41.8929 41.7725 41.5543 41.2063C41.2209 40.6349 41.0543 39.9683 41.0543 39.2063C41.0543 38.4074 41.213 37.6984 41.5305 37.0794C41.8532 36.4603 42.3135 35.9762 42.9114 35.627C43.5093 35.2778 44.2236 35.1032 45.0543 35.1032C45.7633 35.1032 46.3664 35.2328 46.8638 35.4921C47.3664 35.746 47.7474 36.1005 48.0066 36.5556C48.2712 37.0053 48.4035 37.5238 48.4035 38.1111Z" fill="#0D0D0D"/>
<path d="M52.1051 38.5952C52.1051 37.828 52.2136 37.1852 52.4305 36.6667C52.6474 36.1481 52.9331 35.7593 53.2876 35.5C53.6421 35.2354 54.0231 35.1032 54.4305 35.1032C54.9331 35.1032 55.322 35.246 55.5972 35.5317C55.8723 35.8175 56.0099 36.2275 56.0099 36.7619C56.0099 37.2381 55.912 37.5926 55.7162 37.8254C55.5204 38.0582 55.2665 38.1746 54.9543 38.1746C54.6368 38.1746 54.3961 38.0899 54.2321 37.9206C54.0681 37.7513 53.986 37.5159 53.986 37.2143V36.9286C53.9808 36.7593 53.9411 36.6349 53.867 36.5556C53.7929 36.4709 53.6712 36.4286 53.5019 36.4286C53.3167 36.4286 53.1368 36.5053 52.9622 36.6587C52.7929 36.8122 52.6527 37.045 52.5416 37.3571C52.4358 37.6693 52.3829 38.0688 52.3829 38.5556L52.1051 38.5952ZM52.2559 35.6508L52.3829 37.4524V41.5238C52.3829 41.6772 52.412 41.791 52.4702 41.8651C52.5337 41.9339 52.6448 41.9815 52.8035 42.0079L53.486 42.1111C53.6077 42.1323 53.6977 42.172 53.7559 42.2302C53.8194 42.2884 53.8511 42.3677 53.8511 42.4682C53.8511 42.5741 53.8114 42.6561 53.7321 42.7143C53.658 42.7725 53.5495 42.8016 53.4067 42.8016H49.7003C49.5522 42.8016 49.4437 42.7725 49.3749 42.7143C49.3062 42.6561 49.2718 42.5767 49.2718 42.4762C49.2718 42.3968 49.2956 42.3307 49.3432 42.2778C49.3908 42.2196 49.4649 42.172 49.5654 42.1349L49.8749 42.0556C49.9702 42.0238 50.039 41.9709 50.0813 41.8968C50.1289 41.8175 50.1527 41.6958 50.1527 41.5317V37C50.1527 36.8624 50.1316 36.7645 50.0892 36.7063C50.0522 36.6481 49.9887 36.6111 49.8987 36.5952L49.4781 36.5635C49.3829 36.5423 49.3141 36.5079 49.2718 36.4603C49.2294 36.4127 49.2083 36.3518 49.2083 36.2778C49.2083 36.1878 49.2347 36.1164 49.2876 36.0635C49.3405 36.0106 49.4358 35.9577 49.5734 35.9048L51.0178 35.381C51.2771 35.2804 51.4675 35.2169 51.5892 35.1905C51.7109 35.1587 51.8062 35.1429 51.8749 35.1429C51.9913 35.1429 52.0786 35.1825 52.1368 35.2619C52.195 35.336 52.2347 35.4656 52.2559 35.6508Z" fill="#0D0D0D"/>
<path d="M59.6688 31.5079V41.5317C59.6688 41.6958 59.69 41.8175 59.7323 41.8968C59.7799 41.9709 59.8514 42.0238 59.9466 42.0556L60.2482 42.1349C60.3487 42.1667 60.4228 42.2116 60.4704 42.2698C60.518 42.3227 60.5419 42.3915 60.5419 42.4762C60.5419 42.5767 60.5075 42.6561 60.4387 42.7143C60.3699 42.7725 60.2588 42.8016 60.1053 42.8016H56.9784C56.8302 42.8016 56.7217 42.7725 56.653 42.7143C56.5842 42.6561 56.5498 42.5767 56.5498 42.4762C56.5498 42.3968 56.5736 42.3307 56.6212 42.2778C56.6688 42.2196 56.7429 42.172 56.8434 42.1349L57.153 42.0556C57.2482 42.0185 57.317 41.963 57.3593 41.8889C57.4069 41.8148 57.4307 41.6958 57.4307 41.5317V32.8413C57.4307 32.709 57.4096 32.6138 57.3672 32.5556C57.3302 32.4974 57.2667 32.4603 57.1768 32.4444L56.7561 32.4127C56.6609 32.3862 56.5921 32.3492 56.5498 32.3016C56.5075 32.254 56.4863 32.1931 56.4863 32.119C56.4863 32.0344 56.5128 31.9656 56.5657 31.9127C56.6186 31.8598 56.7138 31.8069 56.8514 31.754L58.3276 31.2143C58.5392 31.1349 58.7059 31.0794 58.8276 31.0476C58.9493 31.0159 59.0551 31 59.145 31C59.3196 31 59.4493 31.0476 59.5339 31.1429C59.6239 31.2328 59.6688 31.3545 59.6688 31.5079Z" fill="#0D0D0D"/>
<path d="M64.4202 35.6429V41.5317C64.4202 41.6958 64.4414 41.8175 64.4837 41.8968C64.5313 41.9709 64.6027 42.0238 64.698 42.0556L64.9996 42.1349C65.1001 42.1667 65.1742 42.2116 65.2218 42.2698C65.2694 42.3227 65.2932 42.3915 65.2932 42.4762C65.2932 42.5767 65.2588 42.6561 65.19 42.7143C65.1213 42.7725 65.0101 42.8016 64.8567 42.8016H61.7297C61.5816 42.8016 61.4731 42.7725 61.4043 42.7143C61.3355 42.6561 61.3012 42.5767 61.3012 42.4762C61.3012 42.3968 61.325 42.3307 61.3726 42.2778C61.4202 42.2196 61.4943 42.172 61.5948 42.1349L61.9043 42.0556C61.9996 42.0185 62.0683 41.963 62.1107 41.8889C62.1583 41.8148 62.1821 41.6958 62.1821 41.5317V36.9841C62.1821 36.8466 62.1609 36.7487 62.1186 36.6905C62.0816 36.6323 62.0181 36.5952 61.9281 36.5794L61.5075 36.5476C61.4123 36.5265 61.3435 36.4921 61.3012 36.4444C61.2588 36.3968 61.2377 36.336 61.2377 36.2619C61.2377 36.172 61.2615 36.1005 61.3091 36.0476C61.362 35.9947 61.4599 35.9418 61.6027 35.8889L63.0789 35.3492C63.2853 35.2751 63.4493 35.2222 63.571 35.1905C63.698 35.1587 63.8038 35.1429 63.8885 35.1429C64.0683 35.1429 64.2006 35.1905 64.2853 35.2857C64.3752 35.3757 64.4202 35.4947 64.4202 35.6429ZM63.1265 33.9286C62.7033 33.9286 62.362 33.8201 62.1027 33.6032C61.8488 33.381 61.7218 33.0926 61.7218 32.7381C61.7218 32.3836 61.8488 32.1005 62.1027 31.8889C62.362 31.672 62.7033 31.5635 63.1265 31.5635C63.5551 31.5635 63.8964 31.672 64.1504 31.8889C64.4096 32.1005 64.5392 32.3836 64.5392 32.7381C64.5392 33.0926 64.4096 33.381 64.1504 33.6032C63.8964 33.8201 63.5551 33.9286 63.1265 33.9286Z" fill="#0D0D0D"/>
<path d="M69.1247 35.8175C68.7596 35.8175 68.4739 35.9101 68.2675 36.0952C68.0665 36.2751 67.966 36.5053 67.966 36.7857C67.966 36.9603 68.003 37.119 68.0771 37.2619C68.1564 37.3995 68.3046 37.5265 68.5215 37.6429C68.7384 37.7593 69.0559 37.8677 69.4739 37.9683C70.2887 38.1376 70.9183 38.3492 71.3628 38.6032C71.8072 38.8571 72.1167 39.1508 72.2913 39.4841C72.466 39.8122 72.5533 40.1799 72.5533 40.5873C72.5533 41.3227 72.294 41.91 71.7755 42.3492C71.257 42.7831 70.503 43 69.5136 43C69.1644 43 68.8787 42.9682 68.6564 42.9048C68.4342 42.8466 68.2517 42.7884 68.1088 42.7302C67.966 42.6667 67.839 42.6349 67.7279 42.6349C67.6167 42.6349 67.5242 42.6667 67.4501 42.7302C67.3813 42.7884 67.3152 42.8466 67.2517 42.9048C67.1882 42.9682 67.1035 43 66.9977 43C66.9025 43 66.831 42.9735 66.7834 42.9206C66.7358 42.8677 66.6908 42.7698 66.6485 42.627L66.1247 41.0317C66.0665 40.8466 66.048 40.6958 66.0691 40.5794C66.0956 40.463 66.167 40.3809 66.2834 40.3333C66.4051 40.291 66.5109 40.2936 66.6009 40.3413C66.6908 40.3836 66.7755 40.4656 66.8548 40.5873C67.0929 41 67.3469 41.3307 67.6167 41.5794C67.8866 41.8227 68.1697 42 68.466 42.1111C68.7675 42.2222 69.0744 42.2778 69.3866 42.2778C69.8416 42.2778 70.1802 42.1852 70.4025 42C70.63 41.8148 70.7437 41.5688 70.7437 41.2619C70.7437 41.0767 70.6961 40.91 70.6009 40.7619C70.5056 40.6085 70.3284 40.4709 70.0691 40.3492C69.8099 40.2222 69.4342 40.1032 68.9421 39.9921C68.2596 39.8439 67.7146 39.6534 67.3072 39.4206C66.9051 39.1825 66.6141 38.8968 66.4342 38.5635C66.2596 38.2302 66.1723 37.8439 66.1723 37.4048C66.1723 36.9444 66.2914 36.5423 66.5294 36.1984C66.7675 35.8545 67.0982 35.5873 67.5215 35.3968C67.9448 35.2011 68.4342 35.1032 68.9898 35.1032C69.3496 35.1032 69.6379 35.1349 69.8548 35.1984C70.0718 35.2619 70.249 35.328 70.3866 35.3968C70.5294 35.4603 70.6591 35.4921 70.7755 35.4921C70.9025 35.4921 71.003 35.4603 71.0771 35.3968C71.1511 35.328 71.2226 35.2619 71.2913 35.1984C71.3601 35.1349 71.4448 35.1032 71.5453 35.1032C71.6247 35.1032 71.6908 35.1323 71.7437 35.1905C71.8019 35.2434 71.8443 35.3386 71.8707 35.4762L72.2596 36.9921C72.2966 37.1878 72.3046 37.3413 72.2834 37.4524C72.2675 37.5635 72.1988 37.6429 72.0771 37.6905C71.9607 37.7381 71.8575 37.7328 71.7675 37.6746C71.6776 37.6164 71.5876 37.5132 71.4977 37.3651C71.1697 36.8042 70.7966 36.4074 70.3787 36.1746C69.966 35.9365 69.548 35.8175 69.1247 35.8175Z" fill="#0D0D0D"/>
<path d="M73.8276 36.0635L73.4625 35.9524C73.3355 35.9101 73.2455 35.8624 73.1926 35.8095C73.1397 35.7513 73.1133 35.6852 73.1133 35.6111C73.1133 35.5053 73.1477 35.4259 73.2164 35.373C73.2905 35.3148 73.3884 35.2857 73.5101 35.2857H73.9942C74.1212 35.2857 74.227 35.2619 74.3117 35.2143C74.3963 35.1667 74.4836 35.082 74.5736 34.9603L75.4387 33.746C75.5498 33.6085 75.6556 33.5079 75.7561 33.4444C75.8567 33.381 75.9572 33.3492 76.0577 33.3492C76.1688 33.3492 76.2561 33.3836 76.3196 33.4524C76.3831 33.5212 76.4149 33.6217 76.4149 33.754V40.5397C76.4149 40.91 76.4863 41.1931 76.6291 41.3889C76.7773 41.5847 76.981 41.6825 77.2403 41.6825C77.436 41.6825 77.5868 41.6455 77.6926 41.5714C77.8037 41.4921 77.891 41.4021 77.9545 41.3016C78.018 41.2011 78.0789 41.1138 78.1371 41.0397C78.2006 40.9603 78.2799 40.918 78.3752 40.9127C78.4545 40.9127 78.5154 40.9391 78.5577 40.9921C78.6053 41.045 78.6291 41.1323 78.6291 41.254C78.6238 41.5556 78.5233 41.836 78.3276 42.0952C78.1371 42.3545 77.8699 42.5661 77.526 42.7302C77.182 42.8889 76.7905 42.9682 76.3514 42.9682C75.6741 42.9682 75.1424 42.7989 74.7561 42.4603C74.3752 42.1164 74.1847 41.6005 74.1847 40.9127V36.5317C74.1847 36.3942 74.1556 36.2936 74.0974 36.2302C74.0445 36.1614 73.9545 36.1058 73.8276 36.0635ZM75.5339 36.0714V35.2857H78.1609C78.2826 35.2857 78.3778 35.3122 78.4466 35.3651C78.5207 35.4127 78.5577 35.4841 78.5577 35.5794C78.5577 35.7169 78.4889 35.8333 78.3514 35.9286C78.2138 36.0238 77.9916 36.0714 77.6847 36.0714H75.5339Z" fill="#0D0D0D"/>
<line x1="83.4893" y1="31.1875" x2="83.4893" y2="42.8125" stroke="#6A737D" stroke-width="0.375" stroke-linecap="round"/>
<path d="M92.6009 36.7955L91.6975 37.0511C91.6407 36.9006 91.5569 36.7543 91.4461 36.6122C91.3382 36.4673 91.1904 36.348 91.0029 36.2543C90.8154 36.1605 90.5754 36.1136 90.2828 36.1136C89.8822 36.1136 89.5484 36.206 89.2813 36.3906C89.0171 36.5724 88.885 36.804 88.885 37.0852C88.885 37.3352 88.9759 37.5327 89.1578 37.6776C89.3396 37.8224 89.6237 37.9432 90.01 38.0398L90.9816 38.2784C91.5668 38.4205 92.0029 38.6378 92.2899 38.9304C92.5768 39.2202 92.7203 39.5938 92.7203 40.0511C92.7203 40.4261 92.6123 40.7614 92.3964 41.0568C92.1833 41.3523 91.885 41.5852 91.5015 41.7557C91.118 41.9261 90.672 42.0114 90.1634 42.0114C89.4958 42.0114 88.9433 41.8665 88.5058 41.5767C88.0683 41.2869 87.7913 40.8636 87.6748 40.3068L88.6294 40.0682C88.7203 40.4205 88.8921 40.6847 89.145 40.8608C89.4007 41.0369 89.7345 41.125 90.1464 41.125C90.6151 41.125 90.9873 41.0256 91.2629 40.8267C91.5413 40.625 91.6805 40.3835 91.6805 40.1023C91.6805 39.875 91.6009 39.6847 91.4418 39.5313C91.2828 39.375 91.0384 39.2585 90.7089 39.1818L89.618 38.9261C89.0186 38.7841 88.5782 38.5639 88.297 38.2656C88.0186 37.9645 87.8794 37.5881 87.8794 37.1364C87.8794 36.767 87.983 36.4403 88.1904 36.1563C88.4007 35.8722 88.6862 35.6491 89.047 35.4872C89.4106 35.3253 89.8225 35.2443 90.2828 35.2443C90.9305 35.2443 91.439 35.3864 91.8083 35.6705C92.1805 35.9545 92.4447 36.3295 92.6009 36.7955Z" fill="#444D56"/>
<path d="M94.2341 44.3295V35.3295H95.2057V36.3693H95.325C95.3989 36.2557 95.5012 36.1108 95.6318 35.9347C95.7654 35.7557 95.9557 35.5966 96.2029 35.4574C96.4529 35.3153 96.7909 35.2443 97.2171 35.2443C97.7682 35.2443 98.254 35.3821 98.6744 35.6577C99.0949 35.9332 99.423 36.3239 99.6588 36.8295C99.8946 37.3352 100.013 37.9318 100.013 38.6193C100.013 39.3125 99.8946 39.9134 99.6588 40.4219C99.423 40.9276 99.0963 41.3196 98.6787 41.598C98.2611 41.8736 97.7796 42.0114 97.2341 42.0114C96.8137 42.0114 96.477 41.9418 96.2242 41.8026C95.9713 41.6605 95.7767 41.5 95.6404 41.321C95.504 41.1392 95.3989 40.9886 95.325 40.8693H95.2398V44.3295H94.2341ZM95.2227 38.6023C95.2227 39.0966 95.2952 39.5327 95.4401 39.9105C95.585 40.2855 95.7966 40.5795 96.075 40.7926C96.3534 41.0028 96.6943 41.108 97.0977 41.108C97.5182 41.108 97.8691 40.9972 98.1503 40.7756C98.4344 40.5511 98.6475 40.25 98.7895 39.8722C98.9344 39.4915 99.0068 39.0682 99.0068 38.6023C99.0068 38.142 98.9358 37.7273 98.7938 37.358C98.6546 36.9858 98.4429 36.6918 98.1588 36.4759C97.8776 36.2571 97.5239 36.1477 97.0977 36.1477C96.6887 36.1477 96.3449 36.2514 96.0665 36.4588C95.7881 36.6634 95.5779 36.9503 95.4358 37.3196C95.2938 37.6861 95.2227 38.1136 95.2227 38.6023Z" fill="#444D56"/>
<path d="M104.206 42.0114C103.615 42.0114 103.096 41.8707 102.65 41.5895C102.207 41.3082 101.861 40.9148 101.611 40.4091C101.363 39.9034 101.24 39.3125 101.24 38.6364C101.24 37.9545 101.363 37.3594 101.611 36.8509C101.861 36.3423 102.207 35.9474 102.65 35.6662C103.096 35.3849 103.615 35.2443 104.206 35.2443C104.797 35.2443 105.314 35.3849 105.757 35.6662C106.203 35.9474 106.549 36.3423 106.797 36.8509C107.047 37.3594 107.172 37.9545 107.172 38.6364C107.172 39.3125 107.047 39.9034 106.797 40.4091C106.549 40.9148 106.203 41.3082 105.757 41.5895C105.314 41.8707 104.797 42.0114 104.206 42.0114ZM104.206 41.108C104.655 41.108 105.024 40.9929 105.314 40.7628C105.603 40.5327 105.818 40.2301 105.957 39.8551C106.096 39.4801 106.166 39.0739 106.166 38.6364C106.166 38.1989 106.096 37.7912 105.957 37.4134C105.818 37.0355 105.603 36.7301 105.314 36.4972C105.024 36.2642 104.655 36.1477 104.206 36.1477C103.757 36.1477 103.388 36.2642 103.098 36.4972C102.808 36.7301 102.593 37.0355 102.454 37.4134C102.315 37.7912 102.245 38.1989 102.245 38.6364C102.245 39.0739 102.315 39.4801 102.454 39.8551C102.593 40.2301 102.808 40.5327 103.098 40.7628C103.388 40.9929 103.757 41.108 104.206 41.108Z" fill="#444D56"/>
<path d="M111.553 35.3295V36.1818H108.161V35.3295H111.553ZM109.15 33.7614H110.156V40C110.156 40.2841 110.197 40.4972 110.279 40.6392C110.364 40.7784 110.472 40.8722 110.603 40.9205C110.737 40.9659 110.877 40.9886 111.025 40.9886C111.136 40.9886 111.227 40.983 111.298 40.9716C111.369 40.9574 111.426 40.946 111.468 40.9375L111.673 41.8409C111.604 41.8665 111.509 41.892 111.387 41.9176C111.265 41.946 111.11 41.9602 110.923 41.9602C110.639 41.9602 110.36 41.8991 110.087 41.777C109.818 41.6548 109.593 41.4688 109.414 41.2188C109.238 40.9688 109.15 40.6534 109.15 40.2727V33.7614Z" fill="#444D56"/>
<path d="M114.212 33.1477V41.875H113.207V33.1477H114.212Z" fill="#444D56"/>
<path d="M116.054 41.875V35.3295H117.06V41.875H116.054ZM116.566 34.2386C116.37 34.2386 116.201 34.1719 116.059 34.0384C115.919 33.9048 115.85 33.7443 115.85 33.5568C115.85 33.3693 115.919 33.2088 116.059 33.0753C116.201 32.9418 116.37 32.875 116.566 32.875C116.762 32.875 116.929 32.9418 117.069 33.0753C117.211 33.2088 117.282 33.3693 117.282 33.5568C117.282 33.7443 117.211 33.9048 117.069 34.0384C116.929 34.1719 116.762 34.2386 116.566 34.2386Z" fill="#444D56"/>
<path d="M121.544 44.4659C121.058 44.4659 120.641 44.4034 120.291 44.2784C119.942 44.1563 119.651 43.9943 119.418 43.7926C119.188 43.5938 119.004 43.3807 118.868 43.1534L119.669 42.5909C119.76 42.7102 119.875 42.8466 120.014 43C120.153 43.1563 120.344 43.2912 120.585 43.4048C120.83 43.5213 121.149 43.5795 121.544 43.5795C122.073 43.5795 122.509 43.4517 122.852 43.196C123.196 42.9403 123.368 42.5398 123.368 41.9943V40.6648H123.283C123.209 40.7841 123.104 40.9318 122.967 41.108C122.834 41.2813 122.641 41.4361 122.388 41.5724C122.138 41.706 121.8 41.7727 121.374 41.7727C120.845 41.7727 120.371 41.6477 119.95 41.3977C119.533 41.1477 119.202 40.7841 118.957 40.3068C118.716 39.8295 118.595 39.25 118.595 38.5682C118.595 37.8977 118.713 37.3139 118.949 36.8168C119.185 36.3168 119.513 35.9304 119.933 35.6577C120.354 35.3821 120.84 35.2443 121.391 35.2443C121.817 35.2443 122.155 35.3153 122.405 35.4574C122.658 35.5966 122.851 35.7557 122.984 35.9347C123.121 36.1108 123.226 36.2557 123.3 36.3693H123.402V35.3295H124.374V42.0625C124.374 42.625 124.246 43.0824 123.99 43.4347C123.737 43.7898 123.396 44.0497 122.967 44.2145C122.541 44.3821 122.067 44.4659 121.544 44.4659ZM121.51 40.8693C121.913 40.8693 122.254 40.777 122.533 40.5923C122.811 40.4077 123.023 40.142 123.168 39.7955C123.313 39.4489 123.385 39.0341 123.385 38.5511C123.385 38.0795 123.314 37.6634 123.172 37.3026C123.03 36.9418 122.82 36.6591 122.541 36.4545C122.263 36.25 121.919 36.1477 121.51 36.1477C121.084 36.1477 120.729 36.2557 120.445 36.4716C120.163 36.6875 119.952 36.9773 119.81 37.3409C119.671 37.7045 119.601 38.108 119.601 38.5511C119.601 39.0057 119.672 39.4077 119.814 39.7571C119.959 40.1037 120.172 40.3764 120.453 40.5753C120.737 40.7713 121.09 40.8693 121.51 40.8693Z" fill="#444D56"/>
<path d="M127.22 37.9375V41.875H126.215V33.1477H127.22V36.3523H127.305C127.459 36.0142 127.689 35.7457 127.996 35.5469C128.305 35.3452 128.717 35.2443 129.232 35.2443C129.678 35.2443 130.068 35.3338 130.403 35.5128C130.739 35.6889 130.999 35.9602 131.183 36.3267C131.371 36.6903 131.465 37.1534 131.465 37.7159V41.875H130.459V37.7841C130.459 37.2642 130.324 36.8622 130.054 36.5781C129.787 36.2912 129.416 36.1477 128.942 36.1477C128.612 36.1477 128.317 36.2173 128.055 36.3565C127.797 36.4957 127.592 36.6989 127.442 36.9659C127.294 37.233 127.22 37.5568 127.22 37.9375Z" fill="#444D56"/>
<path d="M136.151 35.3295V36.1818H132.759V35.3295H136.151ZM133.748 33.7614H134.753V40C134.753 40.2841 134.794 40.4972 134.877 40.6392C134.962 40.7784 135.07 40.8722 135.201 40.9205C135.334 40.9659 135.475 40.9886 135.623 40.9886C135.733 40.9886 135.824 40.983 135.895 40.9716C135.966 40.9574 136.023 40.946 136.066 40.9375L136.27 41.8409C136.202 41.8665 136.107 41.892 135.985 41.9176C135.863 41.946 135.708 41.9602 135.52 41.9602C135.236 41.9602 134.958 41.8991 134.685 41.777C134.415 41.6548 134.191 41.4688 134.012 41.2188C133.836 40.9688 133.748 40.6534 133.748 40.2727V33.7614Z" fill="#444D56"/>
<g clip-path="url(#clip2_17395_112294)">
<path d="M149.385 7.26C157.605 19.92 155.265 37.62 142.725 47.16C142.485 47.4 142.365 47.7 142.485 47.88C142.605 48.06 142.965 48.06 143.205 47.82C149.155 43.1109 153.082 36.3076 154.185 28.8C155.325 21.24 153.645 13.56 149.385 7.26ZM148.725 42.9C150.465 44.4 153.945 43.14 155.685 39.66C153.585 38.64 150.765 40.26 148.725 42.9ZM146.865 35.04C145.725 37.38 145.725 40.32 147.465 41.88C149.505 39.24 148.905 36 146.865 35.04ZM151.965 37.68C153.945 38.88 157.065 36.96 158.085 33.24C155.865 32.7 153.465 34.8 151.965 37.68ZM148.545 30.48C147.885 33 148.485 35.88 150.525 36.96H150.585C152.025 34.02 150.765 31.02 148.545 30.48ZM154.065 32.1C156.285 32.82 158.925 30.36 159.225 26.52C156.945 26.4 154.965 28.98 154.065 32.1ZM149.325 25.74C149.145 28.32 150.345 30.96 152.565 31.68V31.62C153.405 28.5 151.665 25.86 149.325 25.74ZM159.045 19.68C156.765 20.1 155.325 22.98 155.085 26.16C157.365 26.46 159.525 23.52 159.045 19.68ZM149.205 20.94C149.565 23.52 151.185 25.8 153.465 26.1L153.525 26.04C153.705 22.86 151.485 20.58 149.205 20.94ZM148.185 16.26C148.965 18.72 151.065 20.64 153.345 20.4C152.985 17.22 150.345 15.42 148.185 16.26ZM157.605 13.02C155.505 13.86 154.605 16.92 154.905 20.04L154.965 20.22H155.025C157.245 19.92 158.745 16.8 157.665 13.2L157.605 13.02ZM146.265 11.76C147.585 14.04 149.925 15.54 152.145 14.88C151.185 11.82 148.245 10.5 146.265 11.76ZM154.845 6.72C152.925 7.98 152.685 11.28 153.645 14.4C155.865 13.74 156.825 10.14 154.845 6.72ZM143.445 7.68C145.245 9.72 147.885 10.74 149.925 9.66C148.305 6.78 145.065 6.06 143.445 7.68ZM150.885 0.96C149.205 2.64 149.685 6 151.305 8.82C153.285 7.74 153.525 4.02 150.885 0.96ZM142.485 0C143.565 2.82 145.845 5.04 148.605 6.12C148.605 3.24 145.485 0.06 142.485 0Z" fill="#00AA45"/>
</g>
</g>
<defs>
<clipPath id="clip0_17395_112294">
<rect width="159.225" height="48" rx="8" fill="white"/>
</clipPath>
<clipPath id="clip1_17395_112294">
<rect width="16.8" height="48" fill="white"/>
</clipPath>
<clipPath id="clip2_17395_112294">
<rect width="16.8" height="48" fill="white" transform="matrix(-1 0 0 1 159.225 0)"/>
</clipPath>
</defs>
</svg>
